<svg width="54" height="54" viewBox="0 0 54 54" fill="none" xmlns="http://www.w3.org/2000/svg">
<rect width="54" height="54" fill="#0D0D0D"/>
<g clip-path="url(#clip0_4456_310)">
<path d="M27.0214 11.933C30.1471 15.9011 31.8156 20.7944 31.7551 25.8155V27.0141L32.7864 27.6416C34.1188 28.4482 35.1126 29.6993 35.5865 31.1669C35.1704 30.8605 34.7351 30.5803 34.2831 30.3278L31.5331 28.7838L31.039 31.9001C30.9962 32.1755 30.9388 32.4485 30.8671 32.718H23.1614C23.0468 32.3655 22.9537 32.0129 22.8678 31.6463L22.2447 28.8261L19.7096 30.2362C19.286 30.473 18.8771 30.7344 18.485 31.0188C18.9681 29.5682 19.9411 28.3242 21.2421 27.4935L22.2232 26.866V25.7521C22.2409 20.7513 23.9296 15.8952 27.0286 11.933H27.0214ZM27.0286 9C26.8679 9.00039 26.7127 9.05799 26.5917 9.16216L26.5273 9.21857C22.3977 13.7656 20.1045 19.6454 20.082 25.745C18.3295 26.8643 17.0324 28.5543 16.4171 30.5197C15.8019 32.485 15.9077 34.6007 16.7161 36.4971C17.5676 34.6455 18.9912 33.1058 20.7838 32.0975C20.9636 32.8642 21.203 33.6161 21.4999 34.3467C21.5376 34.4871 21.6211 34.6114 21.7375 34.7006C21.854 34.7898 21.9969 34.8388 22.1445 34.8402H32.0846C32.2851 34.8402 32.4856 34.6498 32.5859 34.3537C32.8757 33.6592 33.0777 32.9322 33.1874 32.1892C34.9835 33.1932 36.4082 34.7342 37.2551 36.5887C38.1123 34.7017 38.245 32.5727 37.6286 30.5967C37.0123 28.6206 35.6887 26.9319 33.9036 25.8437C33.9744 19.7082 31.6934 13.7718 27.5156 9.21857C27.4533 9.15008 27.3772 9.09524 27.2921 9.05759C27.2069 9.01993 27.1147 9.00031 27.0214 9H27.0286Z" fill="#4EA8DE"/>
<path d="M27.0213 25.1598C26.4713 25.1598 25.9335 24.9995 25.4759 24.699C25.0182 24.3986 24.6612 23.9715 24.4497 23.4716C24.2382 22.9716 24.1818 22.4213 24.2876 21.8898C24.3933 21.3584 24.6565 20.8697 25.044 20.4853C25.4314 20.1009 25.9258 19.838 26.4648 19.7298C27.0038 19.6216 27.5632 19.6729 28.0726 19.8773C28.582 20.0816 29.0186 20.4298 29.3272 20.8781C29.6359 21.3263 29.8029 21.8545 29.8071 22.396V22.396C29.8157 22.7469 29.7539 23.0961 29.6254 23.4235C29.4969 23.751 29.304 24.0503 29.058 24.3043C28.8119 24.5583 28.5174 24.7622 28.1913 24.9041C27.8652 25.0461 27.5139 25.1234 27.1574 25.1316C27.1123 25.1387 27.0664 25.1387 27.0213 25.1316V25.1598Z" fill="#4EA8DE"/>
<path d="M30.8957 36.5958C30.7165 36.5901 30.538 36.6198 30.3706 36.683C30.2032 36.7462 30.0503 36.8416 29.9209 36.9638C29.7915 37.086 29.6881 37.2323 29.6169 37.3943C29.5458 37.5563 29.5082 37.7307 29.5063 37.9072V42.067C29.5063 42.4297 29.6527 42.7776 29.9133 43.0342C30.1738 43.2907 30.5272 43.4348 30.8957 43.4348C31.2641 43.4348 31.6175 43.2907 31.8781 43.0342C32.1386 42.7776 32.285 42.4297 32.285 42.067V37.9636C32.2907 37.7877 32.2608 37.6126 32.1971 37.4482C32.1333 37.2839 32.037 37.1337 31.9137 37.0064C31.7904 36.879 31.6425 36.7772 31.4788 36.7067C31.3151 36.6362 31.1388 36.5985 30.9601 36.5958H30.8957Z" fill="#5E60CE"/>
<path d="M23.1613 36.5958C22.9791 36.5863 22.7968 36.613 22.6252 36.6743C22.4537 36.7356 22.2964 36.8302 22.1628 36.9526C22.0291 37.0749 21.9219 37.2225 21.8474 37.3865C21.7728 37.5505 21.7326 37.7275 21.729 37.9072V42.067C21.729 42.4297 21.8754 42.7777 22.1359 43.0342C22.3965 43.2907 22.7499 43.4348 23.1183 43.4348C23.4868 43.4348 23.8402 43.2907 24.1007 43.0342C24.3613 42.7777 24.5076 42.4297 24.5076 42.067V37.9636C24.5134 37.7877 24.4835 37.6126 24.4197 37.4482C24.356 37.2839 24.2597 37.1337 24.1363 37.0064C24.013 36.879 23.8652 36.7772 23.7015 36.7067C23.5378 36.6362 23.3614 36.5985 23.1828 36.5958H23.1613Z" fill="#5E60CE"/>
<path d="M26.9211 36.5958C26.7424 36.592 26.5647 36.623 26.3981 36.6869C26.2316 36.7507 26.0795 36.8463 25.9504 36.9681C25.8214 37.0899 25.718 37.2355 25.6462 37.3966C25.5744 37.5577 25.5355 37.7312 25.5317 37.9072V43.6392C25.5317 44.002 25.6781 44.3499 25.9387 44.6064C26.1992 44.8629 26.5526 45.007 26.9211 45.007C27.2895 45.007 27.6429 44.8629 27.9035 44.6064C28.164 44.3499 28.3104 44.002 28.3104 43.6392V37.9988C28.3161 37.823 28.2862 37.6478 28.2225 37.4835C28.1587 37.3191 28.0624 37.1689 27.9391 37.0416C27.8158 36.9143 27.6679 36.8124 27.5042 36.7419C27.3405 36.6714 27.1642 36.6337 26.9855 36.631L26.9211 36.5958Z" fill="#5E60CE"/>
</g>
<defs>
<clipPath id="clip0_4456_310">
<rect width="22" height="36" fill="white" transform="translate(16 9)"/>
</clipPath>
</defs>
</svg>
